<svg viewBox="0 0 900 500" xmlns="http://www.w3.org/2000/svg" style="font-family:Arial,sans-serif"><defs><linearGradient id="bgGrad" x1="0" y1="0" x2="0" y2="1">
    <stop offset="0%" stop-color="#b8bcc4"/>
    <stop offset="100%" stop-color="#8f95a0"/>
  </linearGradient></defs><rect width="900" height="500" fill="url(#bgGrad)"/><rect x="108.33333333333333" y="328.6096256684493" width="170.83333333333337" height="67.37967914438423" fill="none" stroke="#000000" stroke-width="1.5"/><line x1="40" y1="328.6096256684493" x2="40" y2="440.90909090909076" stroke="#000000" stroke-width="0.5"/><rect x="36" y="362.29946524064144" width="8" height="22.459893048128606" fill="#FFFFFF" stroke="#000000" stroke-width="0.5"/><line x1="74.16666666666666" y1="317.3796791443858" x2="74.16666666666666" y2="429.67914438502726" stroke="#000000" stroke-width="0.5"/><rect x="70.16666666666666" y="351.06951871657793" width="8" height="22.459893048128606" fill="#000000" stroke="#000000" stroke-width="0.5"/><line x1="108.33333333333333" y1="306.1497326203207" x2="108.33333333333333" y2="418.44919786096216" stroke="#000000" stroke-width="0.5"/><rect x="104.33333333333333" y="339.83957219251283" width="8" height="22.459893048128606" fill="#FFFFFF" stroke="#000000" stroke-width="0.5"/><line x1="142.5" y1="294.9197860962572" x2="142.5" y2="407.21925133689865" stroke="#000000" stroke-width="0.5"/><rect x="138.5" y="328.6096256684493" width="8" height="22.459893048128606" fill="#FFFFFF" stroke="#000000" stroke-width="0.5"/><line x1="176.66666666666666" y1="283.6898395721921" x2="176.66666666666666" y2="395.98930481283355" stroke="#000000" stroke-width="0.5"/><rect x="172.66666666666666" y="317.3796791443842" width="8" height="22.459893048128606" fill="#FFFFFF" stroke="#000000" stroke-width="0.5"/><line x1="210.83333333333334" y1="272.4598930481286" x2="210.83333333333334" y2="384.75935828877004" stroke="#000000" stroke-width="0.5"/><rect x="206.83333333333334" y="306.1497326203207" width="8" height="22.459893048128606" fill="#FFFFFF" stroke="#000000" stroke-width="0.5"/><line x1="245" y1="261.2299465240651" x2="245" y2="373.52941176470654" stroke="#000000" stroke-width="0.5"/><rect x="241" y="294.9197860962572" width="8" height="22.459893048128606" fill="#FFFFFF" stroke="#000000" stroke-width="0.5"/><line x1="279.1666666666667" y1="250" x2="279.1666666666667" y2="362.29946524064144" stroke="#000000" stroke-width="0.5"/><rect x="275.1666666666667" y="283.6898395721921" width="8" height="22.459893048128606" fill="#FFFFFF" stroke="#000000" stroke-width="0.5"/><line x1="313.3333333333333" y1="238.7700534759365" x2="313.3333333333333" y2="351.06951871657793" stroke="#000000" stroke-width="0.5"/><rect x="309.3333333333333" y="272.4598930481286" width="8" height="22.459893048128606" fill="#FFFFFF" stroke="#000000" stroke-width="0.5"/><line x1="347.5" y1="227.5401069518714" x2="347.5" y2="339.83957219251283" stroke="#000000" stroke-width="0.5"/><rect x="343.5" y="261.2299465240635" width="8" height="22.459893048128606" fill="#FFFFFF" stroke="#000000" stroke-width="0.5"/><line x1="381.6666666666667" y1="216.31016042780786" x2="381.6666666666667" y2="328.6096256684493" stroke="#000000" stroke-width="0.5"/><rect x="377.6666666666667" y="250" width="8" height="22.459893048128606" fill="#FFFFFF" stroke="#000000" stroke-width="0.5"/><line x1="415.8333333333333" y1="205.0802139037444" x2="415.8333333333333" y2="317.3796791443858" stroke="#000000" stroke-width="0.5"/><rect x="411.8333333333333" y="238.7700534759365" width="8" height="22.459893048128606" fill="#FFFFFF" stroke="#000000" stroke-width="0.5"/><line x1="450" y1="193.85026737967928" x2="450" y2="306.1497326203207" stroke="#000000" stroke-width="0.5"/><rect x="446" y="227.5401069518714" width="8" height="22.459893048128606" fill="#FFFFFF" stroke="#000000" stroke-width="0.5"/><line x1="484.16666666666663" y1="182.62032085561577" x2="484.16666666666663" y2="294.9197860962572" stroke="#000000" stroke-width="0.5"/><rect x="480.16666666666663" y="216.31016042780786" width="8" height="22.459893048128635" fill="#FFFFFF" stroke="#000000" stroke-width="0.5"/><line x1="518.3333333333334" y1="171.39037433155067" x2="518.3333333333334" y2="283.6898395721921" stroke="#000000" stroke-width="0.5"/><rect x="514.3333333333334" y="205.08021390374282" width="8" height="22.459893048128578" fill="#FFFFFF" stroke="#000000" stroke-width="0.5"/><line x1="552.5" y1="160.16042780748717" x2="552.5" y2="272.4598930481286" stroke="#000000" stroke-width="0.5"/><rect x="548.5" y="193.85026737967928" width="8" height="22.459893048128578" fill="#FFFFFF" stroke="#000000" stroke-width="0.5"/><line x1="586.6666666666666" y1="148.93048128342366" x2="586.6666666666666" y2="261.2299465240651" stroke="#000000" stroke-width="0.5"/><rect x="582.6666666666666" y="182.62032085561577" width="8" height="22.459893048128635" fill="#FFFFFF" stroke="#000000" stroke-width="0.5"/><line x1="620.8333333333334" y1="137.70053475935856" x2="620.8333333333334" y2="250" stroke="#000000" stroke-width="0.5"/><rect x="616.8333333333334" y="171.39037433155067" width="8" height="22.459893048128606" fill="#FFFFFF" stroke="#000000" stroke-width="0.5"/><line x1="655" y1="126.47058823529505" x2="655" y2="238.7700534759365" stroke="#000000" stroke-width="0.5"/><rect x="651" y="160.16042780748717" width="8" height="22.459893048128606" fill="#FFFFFF" stroke="#000000" stroke-width="0.5"/><line x1="689.1666666666666" y1="115.24064171122996" x2="689.1666666666666" y2="227.5401069518714" stroke="#000000" stroke-width="0.5"/><rect x="685.1666666666666" y="148.93048128342207" width="8" height="22.459893048128606" fill="#FFFFFF" stroke="#000000" stroke-width="0.5"/><line x1="723.3333333333334" y1="104.01069518716645" x2="723.3333333333334" y2="216.31016042780786" stroke="#000000" stroke-width="0.5"/><rect x="719.3333333333334" y="137.70053475935856" width="8" height="22.459893048128606" fill="#FFFFFF" stroke="#000000" stroke-width="0.5"/><line x1="757.5" y1="92.78074866310294" x2="757.5" y2="205.0802139037444" stroke="#000000" stroke-width="0.5"/><rect x="753.5" y="126.47058823529505" width="8" height="22.459893048128606" fill="#FFFFFF" stroke="#000000" stroke-width="0.5"/><line x1="791.6666666666666" y1="81.55080213903784" x2="791.6666666666666" y2="193.85026737967928" stroke="#000000" stroke-width="0.5"/><rect x="787.6666666666666" y="115.24064171122996" width="8" height="22.459893048128606" fill="#FFFFFF" stroke="#000000" stroke-width="0.5"/><line x1="825.8333333333334" y1="70.32085561497433" x2="825.8333333333334" y2="182.62032085561577" stroke="#000000" stroke-width="0.5"/><rect x="821.8333333333334" y="104.01069518716645" width="8" height="22.459893048128606" fill="#FFFFFF" stroke="#000000" stroke-width="0.5"/><line x1="860" y1="59.090909090909236" x2="860" y2="171.39037433155067" stroke="#000000" stroke-width="0.5"/><rect x="856" y="92.78074866310135" width="8" height="22.459893048128606" fill="#FFFFFF" stroke="#000000" stroke-width="0.5"/><rect x="442" y="189.85026737967928" width="16" height="120.29946524064144" fill="none" stroke="#FFB300" stroke-width="1.5" rx="3"/><path d="M 723.3333333333334,251.06951871657793 L757.5,239.74234321828064 L791.6666666666666,228.42400671763895 L825.8333333333334,217.1137056694149 L860,205.81070957793256" fill="none" stroke="#000000" stroke-width="2"/><path d="M 313.3333333333333,272.4598930481286 L450,227.5401069518714" fill="none" stroke="#555555" stroke-width="1.5" stroke-dasharray="3,2"/><path d="M 450,227.5401069518714 L586.6666666666666,182.62032085561577" fill="none" stroke="#1E5AFF" stroke-width="1.5" stroke-dasharray="3,2"/><circle cx="142.5" cy="339.83957219251283" r="4" fill="#FF00FF" stroke="#FF00FF" stroke-width="1"><title>Edge test #1</title></circle><circle cx="210.83333333333334" cy="351.06951871657793" r="4" fill="#FF00FF" stroke="#FF00FF" stroke-width="1"><title>Edge test #2</title></circle><line x1="40" y1="328.6096256684493" x2="860" y2="328.6096256684493" stroke="#FFFF00" stroke-width="1" stroke-dasharray="5,5" opacity="0.8"/><text x="865" y="332.6096256684493" font-size="10" fill="#FFFF00">Entry 100.50000</text><line x1="40" y1="440.90909090909076" x2="860" y2="440.90909090909076" stroke="#FF0000" stroke-width="1" stroke-dasharray="5,5" opacity="0.8"/><text x="865" y="444.90909090909076" font-size="10" fill="#FF0000">SL 99.50000</text><line x1="40" y1="104.01069518716645" x2="860" y2="104.01069518716645" stroke="#00AA00" stroke-width="1" stroke-dasharray="5,5" opacity="0.8"/><text x="865" y="108.01069518716645" font-size="10" fill="#00AA00">TP 102.50000</text><line x1="611.6666666666666" y1="157.62032085561577" x2="586.6666666666666" y2="182.62032085561577" stroke="#1E5AFF" stroke-width="1.5"/><text x="606.6666666666666" y="152.62032085561577" font-size="16" font-weight="bold" font-style="italic" fill="#000000">ARB</text><text x="10" y="25" font-size="14" font-weight="bold" fill="black">BTC/USDT LONG — ARB</text></svg>